<?xml version="1.0" encoding="utf-8"?>
<!-- Uploaded to: SVG Repo, www.svgrepo.com, Generator: SVG Repo Mixer Tools -->
<svg fill="#FFFFFF" version="1.1" id="Layer_1" xmlns="http://www.w3.org/2000/svg" xmlns:xlink="http://www.w3.org/1999/xlink" 
	 width="800px" height="800px" viewBox="0 0 256 256" enable-background="new 0 0 256 256" xml:space="preserve">
<path d="M248,91.3V67H80v8H9c0,0,10.7,40.6,67.3,40.6c30.3,0,34.4,12.7,34.4,19.1c0,8.4-5.1,21.9-36.7,32.8V191h38.7
	c6.8-5.2,15.3-8.2,24.5-8.2s17.7,3.1,24.5,8.2H201c0,0,0-15.1,0-22.9c-23.4-7.7-38.7-20.4-38.7-34.8
	C162.3,110.6,200.1,92.5,248,91.3z M80,87c-52,0-52-4-52-4h52C80,83,80,85.4,80,87z M88,79v-4h152v4H88z"/>
</svg>
